<?xml version="1.0" encoding="UTF-8" standalone="no"?>
<svg
   xmlns:dc="http://purl.org/dc/elements/1.1/"
   xmlns:cc="http://creativecommons.org/ns#"
   xmlns:rdf="http://www.w3.org/1999/02/22-rdf-syntax-ns#"
   xmlns:svg="http://www.w3.org/2000/svg"
   xmlns="http://www.w3.org/2000/svg"
   xmlns:sodipodi="http://sodipodi.sourceforge.net/DTD/sodipodi-0.dtd"
   xmlns:inkscape="http://www.inkscape.org/namespaces/inkscape"
   fill-opacity="0"
   color-rendering="auto"
   color-interpolation="auto"
   text-rendering="auto"
   stroke="rgb(0,0,0)"
   stroke-linecap="square"
   width="933"
   stroke-miterlimit="10"
   shape-rendering="auto"
   stroke-opacity="0"
   fill="rgb(0,0,0)"
   stroke-dasharray="none"
   font-weight="normal"
   stroke-width="1"
   height="480"
   font-family="'Dialog'"
   font-style="normal"
   stroke-linejoin="miter"
   font-size="12"
   stroke-dashoffset="0"
   image-rendering="auto"
   id="svg2"
   version="1.1"
   inkscape:version="0.91 r13725"
   sodipodi:docname="pubsubseq.svg">
  <metadata
     id="metadata345">
    <rdf:RDF>
      <cc:Work
         rdf:about="">
        <dc:format>image/svg+xml</dc:format>
        <dc:type
           rdf:resource="http://purl.org/dc/dcmitype/StillImage" />
      </cc:Work>
    </rdf:RDF>
  </metadata>
  <sodipodi:namedview
     pagecolor="#ffffff"
     bordercolor="#666666"
     borderopacity="1"
     objecttolerance="10"
     gridtolerance="10"
     guidetolerance="10"
     inkscape:pageopacity="0"
     inkscape:pageshadow="2"
     inkscape:window-width="1920"
     inkscape:window-height="980"
     id="namedview343"
     showgrid="false"
     inkscape:zoom="0.71811361"
     inkscape:cx="186.36399"
     inkscape:cy="415.32561"
     inkscape:window-x="0"
     inkscape:window-y="29"
     inkscape:window-maximized="1"
     inkscape:current-layer="svg2" />
  <!--Generated by the Batik Graphics2D SVG Generator-->
  <defs
     id="genericDefs">
    <defs
       id="defs1">
      <clipPath
         id="clipPath1"
         clipPathUnits="userSpaceOnUse">
        <path
           id="path9"
           d="M-7 -7 L127 -7 L127 485 L-7 485 L-7 -7 Z" />
      </clipPath>
      <clipPath
         id="clipPath2"
         clipPathUnits="userSpaceOnUse">
        <path
           id="path12"
           d="M-7 -7 L147 -7 L147 485 L-7 485 L-7 -7 Z" />
      </clipPath>
      <clipPath
         id="clipPath3"
         clipPathUnits="userSpaceOnUse">
        <path
           id="path15"
           d="M-7 -7 L137 -7 L137 485 L-7 485 L-7 -7 Z" />
      </clipPath>
      <clipPath
         id="clipPath4"
         clipPathUnits="userSpaceOnUse">
        <path
           id="path18"
           d="M-7 -7 L19 -7 L19 393 L-7 393 L-7 -7 Z" />
      </clipPath>
      <clipPath
         id="clipPath5"
         clipPathUnits="userSpaceOnUse">
        <path
           id="path21"
           d="M-7 -7 L19 -7 L19 160 L-7 160 L-7 -7 Z" />
      </clipPath>
      <clipPath
         id="clipPath6"
         clipPathUnits="userSpaceOnUse">
        <path
           id="path24"
           d="M-7 -7 L19 -7 L19 326 L-7 326 L-7 -7 Z" />
      </clipPath>
      <clipPath
         id="clipPath7"
         clipPathUnits="userSpaceOnUse">
        <path
           id="path27"
           d="M-7 -7 L183 -7 L183 348 L-7 348 L-7 -7 Z" />
      </clipPath>
      <clipPath
         id="clipPath8"
         clipPathUnits="userSpaceOnUse">
        <path
           id="path30"
           d="M-7 -7 L19 -7 L19 180 L-7 180 L-7 -7 Z" />
      </clipPath>
      <clipPath
         id="clipPath9"
         clipPathUnits="userSpaceOnUse">
        <path
           id="path33"
           d="M-116 -31 L232 -31 L232 62 L-116 62 L-116 -31 Z" />
      </clipPath>
      <clipPath
         id="clipPath10"
         clipPathUnits="userSpaceOnUse">
        <path
           id="path36"
           d="M-172 -23 L344 -23 L344 46 L-172 46 L-172 -23 Z" />
      </clipPath>
      <clipPath
         id="clipPath11"
         clipPathUnits="userSpaceOnUse">
        <path
           id="path39"
           d="M-136 -28 L272 -28 L272 56 L-136 56 L-136 -28 Z" />
      </clipPath>
      <clipPath
         id="clipPath12"
         clipPathUnits="userSpaceOnUse">
        <path
           id="path42"
           d="M-126 -31 L252 -31 L252 62 L-126 62 L-126 -31 Z" />
      </clipPath>
      <clipPath
         id="clipPath13"
         clipPathUnits="userSpaceOnUse">
        <path
           id="path45"
           d="M0 0 L894 0 L894 104 L0 104 L0 0 Z" />
      </clipPath>
      <clipPath
         id="clipPath14"
         clipPathUnits="userSpaceOnUse">
        <path
           id="path48"
           d="M444 18 L444 46 L90 46 L90 18 ZM831 54 L831 82 L490 82 L490 54 ZM109 0 L109 9 L0 9 L0 104 L894 104 L894 7 L776 7 L776 0 L541 0 L541 9 L425 9 L425 0 Z" />
      </clipPath>
      <clipPath
         id="clipPath15"
         clipPathUnits="userSpaceOnUse">
        <path
           id="path51"
           d="M741 20 L741 48 L582 48 L582 20 ZM463 63 L463 91 L288 91 L288 63 ZM0 0 L0 104 L104 104 L104 103 L206 103 L206 104 L894 104 L894 0 L762 0 L762 5 L582 5 L582 0 L347 0 L347 14 L175 14 L175 0 Z" />
      </clipPath>
      <clipPath
         id="clipPath16"
         clipPathUnits="userSpaceOnUse">
        <path
           id="path54"
           d="M0 0 L311 0 L311 104 L0 104 L0 0 Z" />
      </clipPath>
      <clipPath
         id="clipPath17"
         clipPathUnits="userSpaceOnUse">
        <path
           id="path57"
           d="M206 17 L206 45 L104 45 L104 17 ZM0 0 L0 104 L105 104 L105 83 L205 83 L205 104 L311 104 L311 84 L287 84 L287 56 L311 56 L311 5 L288 5 L288 0 Z" />
      </clipPath>
      <clipPath
         id="clipPath18"
         clipPathUnits="userSpaceOnUse">
        <path
           id="path60"
           d="M205 18 L205 46 L105 46 L105 18 ZM204 71 L204 99 L104 99 L104 71 ZM0 0 L0 104 L311 104 L311 72 L286 72 L286 44 L311 44 L311 19 L287 19 L287 0 Z" />
      </clipPath>
      <clipPath
         id="clipPath19"
         clipPathUnits="userSpaceOnUse">
        <path
           id="path63"
           d="M204 17 L204 45 L104 45 L104 17 ZM0 0 L0 104 L311 104 L311 18 L286 18 L286 0 Z" />
      </clipPath>
      <clipPath
         id="clipPath20"
         clipPathUnits="userSpaceOnUse">
        <path
           id="path66"
           d="M0 0 L236 0 L236 104 L0 104 L0 0 Z" />
      </clipPath>
      <clipPath
         id="clipPath21"
         clipPathUnits="userSpaceOnUse">
        <path
           id="path69"
           d="M0 0 L0 34 L50 34 L50 57 L0 57 L0 104 L236 104 L236 0 Z" />
      </clipPath>
      <clipPath
         id="clipPath22"
         clipPathUnits="userSpaceOnUse">
        <path
           id="path72"
           d="M0 0 L457 0 L457 104 L0 104 L0 0 Z" />
      </clipPath>
      <clipPath
         id="clipPath23"
         clipPathUnits="userSpaceOnUse">
        <path
           id="path75"
           d="M325 20 L325 48 L145 48 L145 20 ZM304 63 L304 91 L145 91 L145 63 ZM0 0 L0 104 L457 104 L457 0 Z" />
      </clipPath>
      <clipPath
         id="clipPath24"
         clipPathUnits="userSpaceOnUse">
        <path
           id="path78"
           d="M394 17 L394 45 L53 45 L53 17 ZM325 68 L325 96 L145 96 L145 68 ZM7 0 L7 9 L0 9 L0 104 L457 104 L457 0 Z" />
      </clipPath>
      <clipPath
         id="clipPath25"
         clipPathUnits="userSpaceOnUse">
        <path
           id="path81"
           d="M0 0 L318 0 L318 104 L0 104 L0 0 Z" />
      </clipPath>
      <clipPath
         id="clipPath26"
         clipPathUnits="userSpaceOnUse">
        <path
           id="path84"
           d="M248 20 L248 48 L73 48 L73 20 ZM0 0 L0 104 L72 104 L72 99 L247 99 L247 104 L318 104 L318 0 Z" />
      </clipPath>
      <clipPath
         id="clipPath27"
         clipPathUnits="userSpaceOnUse">
        <path
           id="path87"
           d="M247 18 L247 46 L72 46 L72 18 ZM246 71 L246 99 L71 99 L71 71 ZM0 0 L0 104 L318 104 L318 0 Z" />
      </clipPath>
      <clipPath
         id="clipPath28"
         clipPathUnits="userSpaceOnUse">
        <path
           id="path90"
           d="M246 17 L246 45 L71 45 L71 17 ZM0 0 L0 104 L318 104 L318 0 Z" />
      </clipPath>
      <clipPath
         id="clipPath29"
         clipPathUnits="userSpaceOnUse">
        <path
           id="path93"
           d="M-175 -28 L350 -28 L350 56 L-175 56 L-175 -28 Z" />
      </clipPath>
      <clipPath
         id="clipPath30"
         clipPathUnits="userSpaceOnUse">
        <path
           id="path96"
           d="M-341 -28 L682 -28 L682 56 L-341 56 L-341 -28 Z" />
      </clipPath>
      <clipPath
         id="clipPath31"
         clipPathUnits="userSpaceOnUse">
        <path
           id="path99"
           d="M-180 -28 L360 -28 L360 56 L-180 56 L-180 -28 Z" />
      </clipPath>
      <clipPath
         id="clipPath32"
         clipPathUnits="userSpaceOnUse">
        <path
           id="path102"
           d="M-100 -28 L200 -28 L200 56 L-100 56 L-100 -28 Z" />
      </clipPath>
      <clipPath
         id="clipPath33"
         clipPathUnits="userSpaceOnUse">
        <path
           id="path105"
           d="M-102 -28 L204 -28 L204 56 L-102 56 L-102 -28 Z" />
      </clipPath>
      <clipPath
         id="clipPath34"
         clipPathUnits="userSpaceOnUse">
        <path
           id="path108"
           d="M-159 -28 L318 -28 L318 56 L-159 56 L-159 -28 Z" />
      </clipPath>
      <clipPath
         id="clipPath35"
         clipPathUnits="userSpaceOnUse">
        <path
           id="path111"
           d="M-354 -28 L708 -28 L708 56 L-354 56 L-354 -28 Z" />
      </clipPath>
    </defs>
  </defs>
  <g
     style="fill:#ffffff;fill-opacity:1;stroke:#ffffff;stroke-opacity:1;text-rendering:geometricPrecision"
     id="g113">
    <rect
       style="stroke:none"
       id="rect115"
       y="0"
       height="480"
       width="933"
       x="0" />
  </g>
  <g
     style="font-size:24px;font-family:'Source Sans Pro Semibold';fill:#cccccc;fill-opacity:1;stroke:#cccccc;stroke-opacity:1;text-rendering:geometricPrecision"
     id="g117"
     transform="translate(442,2)"
     font-size="24">
    <rect
       style="stroke:none"
       id="rect119"
       clip-path="url(#clipPath1)"
       y="0"
       height="35"
       width="115"
       x="0" />
    <rect
       style="fill:none;stroke:#000000"
       id="rect121"
       height="35"
       width="115"
       clip-path="url(#clipPath1)"
       y="0"
       x="0" />
  </g>
  <g
     style="font-size:24px;font-family:'Source Sans Pro Semibold';fill:#000000;fill-opacity:1;stroke:#000000;stroke-linecap:butt;stroke-linejoin:bevel;stroke-miterlimit:0;stroke-dasharray:8, 3;stroke-opacity:1;text-rendering:geometricPrecision"
     id="g123"
     stroke-miterlimit="0"
     transform="translate(442,2)"
     font-size="24">
    <line
       style="fill:none"
       id="line125"
       y1="35"
       x2="57"
       clip-path="url(#clipPath1)"
       x1="57"
       y2="474" />
  </g>
  <g
     style="font-size:22px;font-family:'Source Sans Pro Semibold';fill:#cccccc;fill-opacity:1;stroke:#cccccc;stroke-opacity:1;text-rendering:geometricPrecision"
     id="g127"
     transform="translate(793,2)"
     font-size="22">
    <rect
       style="stroke:none"
       id="rect129"
       clip-path="url(#clipPath2)"
       y="0"
       height="35"
       width="135"
       x="0" />
  </g>
  <g
     style="font-size:22px;font-family:'Source Sans Pro Semibold';fill:#000000;fill-opacity:1;stroke:#000000;stroke-linecap:butt;stroke-linejoin:round;stroke-miterlimit:0;stroke-opacity:1;text-rendering:geometricPrecision"
     id="g131"
     stroke-miterlimit="0"
     transform="translate(793,2)"
     font-size="22">
    <rect
       style="fill:none"
       id="rect133"
       clip-path="url(#clipPath2)"
       y="0"
       height="35"
       width="135"
       x="0" />
    <line
       style="fill:none;stroke-linejoin:bevel;stroke-dasharray:8, 3"
       id="line135"
       y2="474"
       y1="35"
       x2="67"
       x1="67"
       clip-path="url(#clipPath2)" />
  </g>
  <g
     style="font-size:24px;font-family:'Source Sans Pro Semibold';fill:#cccccc;fill-opacity:1;stroke:#cccccc;stroke-opacity:1;text-rendering:geometricPrecision"
     id="g137"
     transform="translate(0,2)"
     font-size="24">
    <rect
       style="stroke:none"
       id="rect139"
       clip-path="url(#clipPath3)"
       y="0"
       height="35"
       width="125"
       x="0" />
    <rect
       style="fill:none;stroke:#000000"
       id="rect141"
       height="35"
       width="125"
       clip-path="url(#clipPath3)"
       y="0"
       x="0" />
  </g>
  <g
     style="font-size:24px;font-family:'Source Sans Pro Semibold';fill:#000000;fill-opacity:1;stroke:#000000;stroke-linecap:butt;stroke-linejoin:bevel;stroke-miterlimit:0;stroke-dasharray:8, 3;stroke-opacity:1;text-rendering:geometricPrecision"
     id="g143"
     stroke-miterlimit="0"
     transform="translate(0,2)"
     font-size="24">
    <line
       style="fill:none"
       id="line145"
       y1="35"
       x2="62"
       clip-path="url(#clipPath3)"
       x1="62"
       y2="474" />
  </g>
  <g
     style="font-size:18px;font-family:'Source Sans Pro Semibold';fill:#cccccc;fill-opacity:1;stroke:#cccccc;stroke-opacity:1;text-rendering:geometricPrecision"
     id="g147"
     transform="translate(59,66)"
     font-size="18">
    <rect
       style="stroke:none"
       id="rect149"
       clip-path="url(#clipPath4)"
       y="0"
       height="382"
       width="8"
       x="0" />
  </g>
  <g
     style="font-size:18px;font-family:'Source Sans Pro Semibold';fill:#cccccc;fill-opacity:1;stroke:#cccccc;stroke-opacity:1;text-rendering:geometricPrecision"
     id="g151"
     transform="translate(857,66)"
     font-size="18">
    <rect
       style="stroke:none"
       id="rect153"
       clip-path="url(#clipPath5)"
       y="0"
       height="149"
       width="8"
       x="0" />
  </g>
  <g
     style="font-size:18px;font-family:'Source Sans Pro Semibold';fill:#cccccc;fill-opacity:1;stroke:#cccccc;stroke-opacity:1;text-rendering:geometricPrecision"
     id="g155"
     transform="translate(496,113)"
     font-size="18">
    <rect
       style="stroke:none"
       id="rect157"
       clip-path="url(#clipPath6)"
       y="0"
       height="315"
       width="8"
       x="0" />
  </g>
  <g
     style="font-size:18px;font-family:'Source Sans Pro Semibold';fill:#cccccc;fill-opacity:1;stroke:#cccccc;stroke-opacity:1;text-rendering:geometricPrecision"
     id="g159"
     transform="translate(192,139)"
     font-size="18">
    <rect
       style="stroke:none"
       id="rect161"
       clip-path="url(#clipPath7)"
       y="0"
       height="35"
       width="171"
       x="0" />
    <rect
       style="fill:none;stroke:#000000"
       id="rect163"
       height="35"
       width="171"
       clip-path="url(#clipPath7)"
       y="0"
       x="0" />
  </g>
  <g
     style="font-size:18px;font-family:'Source Sans Pro Semibold';fill:#000000;fill-opacity:1;stroke:#000000;stroke-linecap:butt;stroke-linejoin:bevel;stroke-miterlimit:0;stroke-dasharray:8, 3;stroke-opacity:1;text-rendering:geometricPrecision"
     id="g165"
     stroke-miterlimit="0"
     transform="translate(192,139)"
     font-size="18">
    <line
       style="fill:none"
       id="line167"
       y1="35"
       x2="85"
       clip-path="url(#clipPath7)"
       x1="85"
       y2="337" />
  </g>
  <g
     style="font-size:18px;font-family:'Source Sans Pro Semibold';fill:#cccccc;fill-opacity:1;stroke:#cccccc;stroke-opacity:1;text-rendering:geometricPrecision"
     id="g169"
     transform="translate(274,247)"
     font-size="18">
    <rect
       style="stroke:none"
       id="rect171"
       clip-path="url(#clipPath8)"
       y="0"
       height="169"
       width="8"
       x="0" />
  </g>
  <g
     style="font-size:24px;font-family:'Source Sans Pro Semibold';fill:#000000;fill-opacity:1;stroke:#000000;stroke-opacity:1;text-rendering:geometricPrecision"
     id="g173"
     transform="translate(442,4)"
     font-size="24">
    <text
       style="stroke:none"
       id="text175"
       clip-path="url(#clipPath9)"
       y="24"
       xml:space="preserve"
       x="9">Producer</text>
  </g>
  <g
     style="font-size:18px;font-family:'Source Sans Pro Semibold';fill:#000000;fill-opacity:1;stroke:#000000;stroke-opacity:1;text-rendering:geometricPrecision"
     id="g177"
     transform="translate(192,145)"
     font-size="18">
    <text
       style="stroke:none"
       id="text179"
       clip-path="url(#clipPath10)"
       y="18"
       xml:space="preserve"
       x="19">Publish Operator</text>
  </g>
  <g
     style="font-size:22px;font-family:'Source Sans Pro Semibold';fill:#000000;fill-opacity:1;stroke:#000000;stroke-opacity:1;text-rendering:geometricPrecision"
     id="g181"
     transform="translate(793,5)"
     font-size="22">
    <text
       style="stroke:none"
       id="text183"
       clip-path="url(#clipPath11)"
       y="22"
       xml:space="preserve"
       x="9">Coordinator</text>
  </g>
  <g
     style="font-size:24px;font-family:'Source Sans Pro Semibold';fill:#000000;fill-opacity:1;stroke:#000000;stroke-opacity:1;text-rendering:geometricPrecision"
     id="g185"
     transform="translate(0,4)"
     font-size="24">
    <text
       style="stroke:none"
       id="text187"
       clip-path="url(#clipPath12)"
       y="24"
       xml:space="preserve"
       x="9">Consumer</text>
  </g>
  <g
     style="font-size:22px;font-family:'Source Sans Pro Light';fill:#000000;fill-opacity:1;stroke:#000000;stroke-linecap:butt;stroke-linejoin:round;stroke-opacity:1;text-rendering:geometricPrecision"
     id="g189"
     transform="translate(17,26)"
     font-size="22">
    <line
       style="fill:none"
       id="line191"
       y1="50"
       x2="840"
       clip-path="url(#clipPath14)"
       x1="50"
       y2="50" />
    <polygon
       style="stroke:none"
       id="polygon193"
       clip-path="url(#clipPath14)"
       points="828,56 840,50 828,44 " />
    <polygon
       style="fill:none"
       id="polygon195"
       clip-path="url(#clipPath14)"
       points="828,56 840,50 828,44 " />
  </g>
  <g
     style="font-size:22px;font-family:'Source Sans Pro Light';fill:#000000;fill-opacity:1;stroke:#000000;stroke-linecap:butt;stroke-linejoin:round;stroke-miterlimit:0;stroke-dasharray:8, 3;stroke-opacity:1;text-rendering:geometricPrecision"
     id="g197"
     stroke-miterlimit="0"
     transform="translate(17,154)"
     font-size="22">
    <line
       style="fill:none"
       id="line199"
       y1="50"
       x2="50"
       clip-path="url(#clipPath15)"
       x1="840"
       y2="50" />
    <line
       style="fill:none;stroke-miterlimit:10;stroke-dasharray:none"
       id="line201"
       stroke-miterlimit="10"
       y2="56"
       y1="50"
       x2="62"
       x1="50"
       clip-path="url(#clipPath15)" />
    <line
       style="fill:none;stroke-miterlimit:10;stroke-dasharray:none"
       id="line203"
       stroke-miterlimit="10"
       y2="44"
       y1="50"
       x2="62"
       x1="50"
       clip-path="url(#clipPath15)" />
  </g>
  <g
     style="font-size:22px;font-family:'Source Sans Pro Light';fill:#000000;fill-opacity:1;stroke:#000000;stroke-linecap:butt;stroke-linejoin:round;stroke-opacity:1;text-rendering:geometricPrecision"
     id="g205"
     transform="translate(17,240)"
     font-size="22">
    <line
       style="fill:none"
       id="line207"
       y1="50"
       x2="257"
       clip-path="url(#clipPath17)"
       x1="50"
       y2="50" />
    <polygon
       style="stroke:none"
       id="polygon209"
       clip-path="url(#clipPath17)"
       points="245,56 257,50 245,44 " />
    <polygon
       style="fill:none"
       id="polygon211"
       clip-path="url(#clipPath17)"
       points="245,56 257,50 245,44 " />
  </g>
  <g
     style="font-size:22px;font-family:'Source Sans Pro Light';fill:#000000;fill-opacity:1;stroke:#000000;stroke-linecap:butt;stroke-linejoin:round;stroke-miterlimit:0;stroke-dasharray:8, 3;stroke-opacity:1;text-rendering:geometricPrecision"
     id="g213"
     stroke-miterlimit="0"
     transform="translate(17,305)"
     font-size="22">
    <line
       style="fill:none"
       id="line215"
       y1="50"
       x2="50"
       clip-path="url(#clipPath18)"
       x1="257"
       y2="50" />
    <line
       style="fill:none;stroke-miterlimit:10;stroke-dasharray:none"
       id="line217"
       stroke-miterlimit="10"
       y2="56"
       y1="50"
       x2="62"
       x1="50"
       clip-path="url(#clipPath18)" />
    <line
       style="fill:none;stroke-miterlimit:10;stroke-dasharray:none"
       id="line219"
       stroke-miterlimit="10"
       y2="44"
       y1="50"
       x2="62"
       x1="50"
       clip-path="url(#clipPath18)" />
  </g>
  <g
     style="font-size:22px;font-family:'Source Sans Pro Light';fill:#000000;fill-opacity:1;stroke:#000000;stroke-linecap:butt;stroke-linejoin:round;stroke-miterlimit:0;stroke-dasharray:8, 3;stroke-opacity:1;text-rendering:geometricPrecision"
     id="g221"
     stroke-miterlimit="0"
     transform="translate(17,359)"
     font-size="22">
    <line
       style="fill:none"
       id="line223"
       y1="50"
       x2="50"
       clip-path="url(#clipPath19)"
       x1="257"
       y2="50" />
    <line
       style="fill:none;stroke-miterlimit:10;stroke-dasharray:none"
       id="line225"
       stroke-miterlimit="10"
       y2="56"
       y1="50"
       x2="62"
       x1="50"
       clip-path="url(#clipPath19)" />
    <line
       style="fill:none;stroke-miterlimit:10;stroke-dasharray:none"
       id="line227"
       stroke-miterlimit="10"
       y2="44"
       y1="50"
       x2="62"
       x1="50"
       clip-path="url(#clipPath19)" />
  </g>
  <g
     style="font-size:22px;font-family:'Source Sans Pro Light';fill:#000000;fill-opacity:1;stroke:#000000;stroke-linecap:butt;stroke-linejoin:round;stroke-dasharray:5;stroke-dashoffset:1;stroke-opacity:1;text-rendering:geometricPrecision"
     id="g229"
     transform="translate(314,111)"
     font-size="22">
    <line
       style="fill:none"
       id="line231"
       y1="50"
       x2="50"
       clip-path="url(#clipPath21)"
       x1="182"
       y2="50" />
    <line
       style="fill:none;stroke-dasharray:none;stroke-dashoffset:0"
       id="line233"
       y2="56"
       y1="50"
       x2="62"
       x1="50"
       clip-path="url(#clipPath21)" />
    <line
       style="fill:none;stroke-dasharray:none;stroke-dashoffset:0"
       id="line235"
       y2="44"
       y1="50"
       x2="62"
       x1="50"
       clip-path="url(#clipPath21)" />
  </g>
  <g
     style="font-size:22px;font-family:'Source Sans Pro Light';fill:#000000;fill-opacity:1;stroke:#000000;stroke-linecap:butt;stroke-linejoin:round;stroke-miterlimit:0;stroke-dasharray:8, 3;stroke-opacity:1;text-rendering:geometricPrecision"
     id="g237"
     stroke-miterlimit="0"
     transform="translate(454,111)"
     font-size="22">
    <line
       style="fill:none"
       id="line239"
       y1="50"
       x2="50"
       clip-path="url(#clipPath23)"
       x1="403"
       y2="50" />
    <line
       style="fill:none;stroke-miterlimit:10;stroke-dasharray:none"
       id="line241"
       stroke-miterlimit="10"
       y2="56"
       y1="50"
       x2="62"
       x1="50"
       clip-path="url(#clipPath23)" />
    <line
       style="fill:none;stroke-miterlimit:10;stroke-dasharray:none"
       id="line243"
       stroke-miterlimit="10"
       y2="44"
       y1="50"
       x2="62"
       x1="50"
       clip-path="url(#clipPath23)" />
  </g>
  <g
     style="font-size:22px;font-family:'Source Sans Pro Light';fill:#000000;fill-opacity:1;stroke:#000000;stroke-linecap:butt;stroke-linejoin:round;stroke-opacity:1;text-rendering:geometricPrecision"
     id="g245"
     transform="translate(454,63)"
     font-size="22">
    <line
       style="fill:none"
       id="line247"
       y1="50"
       x2="403"
       clip-path="url(#clipPath24)"
       x1="50"
       y2="50" />
    <polygon
       style="stroke:none"
       id="polygon249"
       clip-path="url(#clipPath24)"
       points="391,56 403,50 391,44 " />
    <polygon
       style="fill:none"
       id="polygon251"
       clip-path="url(#clipPath24)"
       points="391,56 403,50 391,44 " />
  </g>
  <g
     style="font-size:22px;font-family:'Source Sans Pro Light';fill:#000000;fill-opacity:1;stroke:#000000;stroke-linecap:butt;stroke-linejoin:round;stroke-opacity:1;text-rendering:geometricPrecision"
     id="g253"
     transform="translate(232,197)"
     font-size="22">
    <line
       style="fill:none"
       id="line255"
       y1="50"
       x2="50"
       clip-path="url(#clipPath26)"
       x1="264"
       y2="50" />
    <polygon
       style="stroke:none"
       id="polygon257"
       clip-path="url(#clipPath26)"
       points="62,44 50,50 62,56 " />
    <polygon
       style="fill:none"
       id="polygon259"
       clip-path="url(#clipPath26)"
       points="62,44 50,50 62,56 " />
  </g>
  <g
     style="font-size:22px;font-family:'Source Sans Pro Light';fill:#000000;fill-opacity:1;stroke:#000000;stroke-linecap:butt;stroke-linejoin:round;stroke-opacity:1;text-rendering:geometricPrecision"
     id="g261"
     transform="translate(232,278)"
     font-size="22">
    <line
       style="fill:none"
       id="line263"
       y1="50"
       x2="50"
       clip-path="url(#clipPath27)"
       x1="264"
       y2="50" />
    <polygon
       style="stroke:none"
       id="polygon265"
       clip-path="url(#clipPath27)"
       points="62,44 50,50 62,56 " />
    <polygon
       style="fill:none"
       id="polygon267"
       clip-path="url(#clipPath27)"
       points="62,44 50,50 62,56 " />
  </g>
  <g
     style="font-size:22px;font-family:'Source Sans Pro Light';fill:#000000;fill-opacity:1;stroke:#000000;stroke-linecap:butt;stroke-linejoin:round;stroke-opacity:1;text-rendering:geometricPrecision"
     id="g269"
     transform="translate(232,332)"
     font-size="22">
    <line
       style="fill:none"
       id="line271"
       y1="50"
       x2="50"
       clip-path="url(#clipPath28)"
       x1="264"
       y2="50" />
    <polygon
       style="stroke:none"
       id="polygon273"
       clip-path="url(#clipPath28)"
       points="62,44 50,50 62,56 " />
    <polygon
       style="fill:none"
       id="polygon275"
       clip-path="url(#clipPath28)"
       points="62,44 50,50 62,56 " />
  </g>
  <g
     style="font-size:22px;font-family:'Source Sans Pro Light';fill:#ffffff;fill-opacity:1;stroke:#ffffff;stroke-opacity:1;text-rendering:geometricPrecision"
     id="g277"
     transform="translate(303,349)"
     font-size="22">
    <rect
       style="stroke:none"
       id="rect279"
       clip-path="url(#clipPath29)"
       y="0"
       height="28"
       width="175"
       x="0" />
    <text
       style="fill:#000000;stroke:none"
       id="text281"
       clip-path="url(#clipPath29)"
       y="22"
       xml:space="preserve"
       x="9">publish  [t2, data]</text>
  </g>
  <g
     style="font-size:22px;font-family:'Source Sans Pro Light';fill:#ffffff;fill-opacity:1;stroke:#ffffff;stroke-opacity:1;text-rendering:geometricPrecision"
     id="g283"
     transform="translate(304,296)"
     font-size="22">
    <rect
       style="stroke:none"
       id="rect285"
       clip-path="url(#clipPath29)"
       y="0"
       height="28"
       width="175"
       x="0" />
    <text
       style="fill:#000000;stroke:none"
       id="text287"
       clip-path="url(#clipPath29)"
       y="22"
       xml:space="preserve"
       x="9">publish  [t1, data]</text>
  </g>
  <g
     style="font-size:22px;font-family:'Source Sans Pro Light';fill:#ffffff;fill-opacity:1;stroke:#ffffff;stroke-opacity:1;text-rendering:geometricPrecision"
     id="g289"
     transform="translate(305,217)"
     font-size="22">
    <rect
       style="stroke:none"
       id="rect291"
       clip-path="url(#clipPath29)"
       y="0"
       height="28"
       width="175"
       x="0" />
    <text
       style="fill:#000000;stroke:none"
       id="text293"
       clip-path="url(#clipPath29)"
       y="22"
       xml:space="preserve"
       x="9">publish  [t0, data]</text>
  </g>
  <g
     style="font-size:22px;font-family:'Source Sans Pro Light';fill:#ffffff;fill-opacity:1;stroke:#ffffff;stroke-opacity:1;text-rendering:geometricPrecision"
     id="g295"
     transform="translate(507,80)"
     font-size="22">
    <rect
       style="stroke:none"
       id="rect297"
       clip-path="url(#clipPath30)"
       y="0"
       height="28"
       width="341"
       x="0" />
    <text
       style="fill:#000000;stroke:none"
       id="text299"
       clip-path="url(#clipPath30)"
       y="22"
       xml:space="preserve"
       x="10">Publication (&quot;Name&quot;, Type, Address)</text>
  </g>
  <g
     style="font-size:22px;font-family:'Source Sans Pro Light';fill:#ffffff;fill-opacity:1;stroke:#ffffff;stroke-opacity:1;text-rendering:geometricPrecision"
     id="g301"
     transform="translate(599,131)"
     font-size="22">
    <rect
       style="stroke:none"
       id="rect303"
       clip-path="url(#clipPath31)"
       y="0"
       height="28"
       width="180"
       x="0" />
    <text
       style="fill:#000000;stroke:none"
       id="text305"
       clip-path="url(#clipPath31)"
       y="22"
       xml:space="preserve"
       x="10">Success (Topic Id)</text>
  </g>
  <g
     style="font-size:22px;font-family:'Source Sans Pro Light';fill:#ffffff;fill-opacity:1;stroke:#ffffff;stroke-opacity:1;text-rendering:geometricPrecision"
     id="g307"
     transform="translate(121,376)"
     font-size="22">
    <rect
       style="stroke:none"
       id="rect309"
       clip-path="url(#clipPath32)"
       y="0"
       height="28"
       width="100"
       x="0" />
    <text
       style="fill:#000000;stroke:none"
       id="text311"
       clip-path="url(#clipPath32)"
       y="22"
       xml:space="preserve"
       x="9">[t2, data]</text>
  </g>
  <g
     style="font-size:22px;font-family:'Source Sans Pro Light';fill:#ffffff;fill-opacity:1;stroke:#ffffff;stroke-opacity:1;text-rendering:geometricPrecision"
     id="g313"
     transform="translate(122,323)"
     font-size="22">
    <rect
       style="stroke:none"
       id="rect315"
       clip-path="url(#clipPath32)"
       y="0"
       height="28"
       width="100"
       x="0" />
    <text
       style="fill:#000000;stroke:none"
       id="text317"
       clip-path="url(#clipPath32)"
       y="22"
       xml:space="preserve"
       x="9">[t1, data]</text>
  </g>
  <g
     style="font-size:22px;font-family:'Source Sans Pro Light';fill:#ffffff;fill-opacity:1;stroke:#ffffff;stroke-opacity:1;text-rendering:geometricPrecision"
     id="g319"
     transform="translate(121,257)"
     font-size="22">
    <rect
       style="stroke:none"
       id="rect321"
       clip-path="url(#clipPath33)"
       y="0"
       height="28"
       width="102"
       x="0" />
    <text
       style="fill:#000000;stroke:none"
       id="text323"
       clip-path="url(#clipPath33)"
       y="22"
       xml:space="preserve"
       x="9">connects</text>
  </g>
  <g
     style="font-size:22px;font-family:'Source Sans Pro Light';fill:#ffffff;fill-opacity:1;stroke:#ffffff;stroke-opacity:1;text-rendering:geometricPrecision"
     id="g325"
     transform="translate(599,174)"
     font-size="22">
    <rect
       style="stroke:none"
       id="rect327"
       clip-path="url(#clipPath34)"
       y="0"
       height="28"
       width="159"
       x="0" />
    <text
       style="fill:#000000;stroke:none"
       id="text329"
       clip-path="url(#clipPath34)"
       y="22"
       xml:space="preserve"
       x="9">Success (Topic)</text>
  </g>
  <g
     style="font-size:22px;font-family:'Source Sans Pro Light';fill:#ffffff;fill-opacity:1;stroke:#ffffff;stroke-opacity:1;text-rendering:geometricPrecision"
     id="g331"
     transform="translate(107,44)"
     font-size="22">
    <rect
       style="stroke:none"
       id="rect333"
       clip-path="url(#clipPath35)"
       y="0"
       height="28"
       width="354"
       x="0" />
    <text
       style="fill:#000000;stroke:none"
       id="text335"
       clip-path="url(#clipPath35)"
       y="22"
       xml:space="preserve"
       x="10">Blocking Subscription (&quot;Name&quot;, Type)</text>
  </g>
</svg>
