<?xml version="1.0" encoding="UTF-8" standalone="no"?>
<svg
   xmlns:dc="http://purl.org/dc/elements/1.1/"
   xmlns:cc="http://creativecommons.org/ns#"
   xmlns:rdf="http://www.w3.org/1999/02/22-rdf-syntax-ns#"
   xmlns:svg="http://www.w3.org/2000/svg"
   xmlns="http://www.w3.org/2000/svg"
   xmlns:sodipodi="http://sodipodi.sourceforge.net/DTD/sodipodi-0.dtd"
   xmlns:inkscape="http://www.inkscape.org/namespaces/inkscape"
   fill-opacity="0"
   color-rendering="auto"
   color-interpolation="auto"
   text-rendering="auto"
   stroke="rgb(0,0,0)"
   stroke-linecap="square"
   width="973"
   stroke-miterlimit="10"
   shape-rendering="auto"
   stroke-opacity="0"
   fill="rgb(0,0,0)"
   stroke-dasharray="none"
   font-weight="normal"
   stroke-width="1"
   height="631"
   font-family="'Dialog'"
   font-style="normal"
   stroke-linejoin="miter"
   font-size="12"
   stroke-dashoffset="0"
   image-rendering="auto"
   id="svg2"
   version="1.1"
   inkscape:version="0.91 r13725"
   sodipodi:docname="spawn_singleprocess.svg">
  <metadata
     id="metadata341">
    <rdf:RDF>
      <cc:Work
         rdf:about="">
        <dc:format>image/svg+xml</dc:format>
        <dc:type
           rdf:resource="http://purl.org/dc/dcmitype/StillImage" />
      </cc:Work>
    </rdf:RDF>
  </metadata>
  <sodipodi:namedview
     pagecolor="#ffffff"
     bordercolor="#666666"
     borderopacity="1"
     objecttolerance="10"
     gridtolerance="10"
     guidetolerance="10"
     inkscape:pageopacity="0"
     inkscape:pageshadow="2"
     inkscape:window-width="1920"
     inkscape:window-height="1129"
     id="namedview339"
     showgrid="false"
     inkscape:zoom="0.97381612"
     inkscape:cx="397.83941"
     inkscape:cy="358.00286"
     inkscape:window-x="0"
     inkscape:window-y="0"
     inkscape:window-maximized="1"
     inkscape:current-layer="svg2" />
  <!--Generated by the Batik Graphics2D SVG Generator-->
  <defs
     id="genericDefs">
    <defs
       id="defs1">
      <clipPath
         id="clipPath1"
         clipPathUnits="userSpaceOnUse">
        <path
           id="path9"
           d="M-7 -7 L110 -7 L110 636 L-7 636 L-7 -7 Z" />
      </clipPath>
      <clipPath
         id="clipPath2"
         clipPathUnits="userSpaceOnUse">
        <path
           id="path12"
           d="M-7 -7 L126 -7 L126 636 L-7 636 L-7 -7 Z" />
      </clipPath>
      <clipPath
         id="clipPath3"
         clipPathUnits="userSpaceOnUse">
        <path
           id="path15"
           d="M-7 -7 L100 -7 L100 636 L-7 636 L-7 -7 Z" />
      </clipPath>
      <clipPath
         id="clipPath4"
         clipPathUnits="userSpaceOnUse">
        <path
           id="path18"
           d="M-7 -7 L81 -7 L81 400 L-7 400 L-7 -7 Z" />
      </clipPath>
      <clipPath
         id="clipPath5"
         clipPathUnits="userSpaceOnUse">
        <path
           id="path21"
           d="M-7 -7 L19 -7 L19 485 L-7 485 L-7 -7 Z" />
      </clipPath>
      <clipPath
         id="clipPath6"
         clipPathUnits="userSpaceOnUse">
        <path
           id="path24"
           d="M-7 -7 L19 -7 L19 525 L-7 525 L-7 -7 Z" />
      </clipPath>
      <clipPath
         id="clipPath7"
         clipPathUnits="userSpaceOnUse">
        <path
           id="path27"
           d="M-7 -7 L19 -7 L19 225 L-7 225 L-7 -7 Z" />
      </clipPath>
      <clipPath
         id="clipPath8"
         clipPathUnits="userSpaceOnUse">
        <path
           id="path30"
           d="M-7 -7 L19 -7 L19 206 L-7 206 L-7 -7 Z" />
      </clipPath>
      <clipPath
         id="clipPath9"
         clipPathUnits="userSpaceOnUse">
        <path
           id="path33"
           d="M-7 -7 L19 -7 L19 23 L-7 23 L-7 -7 Z" />
      </clipPath>
      <clipPath
         id="clipPath10"
         clipPathUnits="userSpaceOnUse">
        <path
           id="path36"
           d="M-70 -23 L140 -23 L140 46 L-70 46 L-70 -23 Z" />
      </clipPath>
      <clipPath
         id="clipPath11"
         clipPathUnits="userSpaceOnUse">
        <path
           id="path39"
           d="M-89 -23 L178 -23 L178 46 L-89 46 L-89 -23 Z" />
      </clipPath>
      <clipPath
         id="clipPath12"
         clipPathUnits="userSpaceOnUse">
        <path
           id="path42"
           d="M-115 -23 L230 -23 L230 46 L-115 46 L-115 -23 Z" />
      </clipPath>
      <clipPath
         id="clipPath13"
         clipPathUnits="userSpaceOnUse">
        <path
           id="path45"
           d="M-99 -23 L198 -23 L198 46 L-99 46 L-99 -23 Z" />
      </clipPath>
      <clipPath
         id="clipPath14"
         clipPathUnits="userSpaceOnUse">
        <path
           id="path48"
           d="M0 0 L956 0 L956 104 L0 104 L0 0 Z" />
      </clipPath>
      <clipPath
         id="clipPath15"
         clipPathUnits="userSpaceOnUse">
        <path
           id="path51"
           d="M619 23 L619 46 L315 46 L315 23 ZM779 77 L779 100 L442 100 L442 77 ZM0 0 L0 104 L956 104 L956 0 Z" />
      </clipPath>
      <clipPath
         id="clipPath16"
         clipPathUnits="userSpaceOnUse">
        <path
           id="path54"
           d="M0 0 L675 0 L675 104 L0 104 L0 0 Z" />
      </clipPath>
      <clipPath
         id="clipPath17"
         clipPathUnits="userSpaceOnUse">
        <path
           id="path57"
           d="M498 25 L498 48 L161 48 L161 25 ZM0 0 L0 104 L86 104 L86 101 L193 101 L193 104 L675 104 L675 0 Z" />
      </clipPath>
      <clipPath
         id="clipPath18"
         clipPathUnits="userSpaceOnUse">
        <path
           id="path60"
           d="M0 0 L339 0 L339 104 L0 104 L0 0 Z" />
      </clipPath>
      <clipPath
         id="clipPath19"
         clipPathUnits="userSpaceOnUse">
        <path
           id="path63"
           d="M229 26 L229 49 L99 49 L99 26 ZM0 0 L0 104 L293 104 L293 97 L339 97 L339 59 L285 59 L285 36 L339 36 L339 0 L193 0 L193 1 L86 1 L86 0 Z" />
      </clipPath>
      <clipPath
         id="clipPath20"
         clipPathUnits="userSpaceOnUse">
        <path
           id="path66"
           d="M372 26 L372 49 L293 49 L293 26 ZM0 0 L0 104 L675 104 L675 0 Z" />
      </clipPath>
      <clipPath
         id="clipPath21"
         clipPathUnits="userSpaceOnUse">
        <path
           id="path69"
           d="M0 0 L401 0 L401 104 L0 104 L0 0 Z" />
      </clipPath>
      <clipPath
         id="clipPath22"
         clipPathUnits="userSpaceOnUse">
        <path
           id="path72"
           d="M219 26 L219 49 L173 49 L173 26 ZM0 0 L0 104 L401 104 L401 0 Z" />
      </clipPath>
      <clipPath
         id="clipPath23"
         clipPathUnits="userSpaceOnUse">
        <path
           id="path75"
           d="M549 25 L549 48 L395 48 L395 25 ZM0 0 L0 104 L956 104 L956 0 Z" />
      </clipPath>
      <clipPath
         id="clipPath24"
         clipPathUnits="userSpaceOnUse">
        <path
           id="path78"
           d="M0 0 L131 0 L131 126 L0 126 L0 0 Z" />
      </clipPath>
      <clipPath
         id="clipPath25"
         clipPathUnits="userSpaceOnUse">
        <path
           id="path81"
           d="M0 0 L0 126 L131 126 L131 120 L99 120 L99 97 L131 97 L131 72 L86 72 L86 49 L131 49 L131 0 Z" />
      </clipPath>
      <clipPath
         id="clipPath26"
         clipPathUnits="userSpaceOnUse">
        <path
           id="path84"
           d="M0 0 L130 0 L130 124 L0 124 L0 0 Z" />
      </clipPath>
      <clipPath
         id="clipPath27"
         clipPathUnits="userSpaceOnUse">
        <path
           id="path87"
           d="M0 0 L0 124 L130 124 L130 107 L109 107 L109 84 L130 84 L130 71 L86 71 L86 48 L130 48 L130 0 Z" />
      </clipPath>
      <clipPath
         id="clipPath28"
         clipPathUnits="userSpaceOnUse">
        <path
           id="path90"
           d="M278 24 L278 47 L109 47 L109 24 ZM219 76 L219 99 L173 99 L173 76 ZM0 0 L0 104 L401 104 L401 0 L281 0 L281 11 L86 11 L86 0 Z" />
      </clipPath>
      <clipPath
         id="clipPath29"
         clipPathUnits="userSpaceOnUse">
        <path
           id="path93"
           d="M-169 -23 L338 -23 L338 46 L-169 46 L-169 -23 Z" />
      </clipPath>
      <clipPath
         id="clipPath30"
         clipPathUnits="userSpaceOnUse">
        <path
           id="path96"
           d="M-195 -23 L390 -23 L390 46 L-195 46 L-195 -23 Z" />
      </clipPath>
      <clipPath
         id="clipPath31"
         clipPathUnits="userSpaceOnUse">
        <path
           id="path99"
           d="M-107 -23 L214 -23 L214 46 L-107 46 L-107 -23 Z" />
      </clipPath>
      <clipPath
         id="clipPath32"
         clipPathUnits="userSpaceOnUse">
        <path
           id="path102"
           d="M-154 -23 L308 -23 L308 46 L-154 46 L-154 -23 Z" />
      </clipPath>
      <clipPath
         id="clipPath33"
         clipPathUnits="userSpaceOnUse">
        <path
           id="path105"
           d="M-46 -23 L92 -23 L92 46 L-46 46 L-46 -23 Z" />
      </clipPath>
      <clipPath
         id="clipPath34"
         clipPathUnits="userSpaceOnUse">
        <path
           id="path108"
           d="M-79 -23 L158 -23 L158 46 L-79 46 L-79 -23 Z" />
      </clipPath>
      <clipPath
         id="clipPath35"
         clipPathUnits="userSpaceOnUse">
        <path
           id="path111"
           d="M-130 -23 L260 -23 L260 46 L-130 46 L-130 -23 Z" />
      </clipPath>
      <clipPath
         id="clipPath36"
         clipPathUnits="userSpaceOnUse">
        <path
           id="path114"
           d="M-337 -23 L674 -23 L674 46 L-337 46 L-337 -23 Z" />
      </clipPath>
      <clipPath
         id="clipPath37"
         clipPathUnits="userSpaceOnUse">
        <path
           id="path117"
           d="M-304 -23 L608 -23 L608 46 L-304 46 L-304 -23 Z" />
      </clipPath>
    </defs>
  </defs>
  <g
     style="fill:#ffffff;fill-opacity:1;stroke:#ffffff;stroke-opacity:1;text-rendering:geometricPrecision"
     id="g119">
    <rect
       style="stroke:none"
       id="rect121"
       y="0"
       height="631"
       width="973"
       x="0" />
  </g>
  <g
     style="font-size:18px;font-family:'Source Sans Pro Semibold';fill:#cccccc;fill-opacity:1;stroke:#cccccc;stroke-opacity:1;text-rendering:geometricPrecision"
     id="g123"
     transform="translate(2,2)"
     font-size="18">
    <rect
       style="stroke:none"
       id="rect125"
       clip-path="url(#clipPath1)"
       y="0"
       height="35"
       width="98"
       x="0" />
    <rect
       style="fill:none;stroke:#000000"
       id="rect127"
       height="35"
       width="98"
       clip-path="url(#clipPath1)"
       y="0"
       x="0" />
  </g>
  <g
     style="font-size:18px;font-family:'Source Sans Pro Semibold';fill:#000000;fill-opacity:1;stroke:#000000;stroke-linecap:butt;stroke-linejoin:bevel;stroke-miterlimit:0;stroke-dasharray:8, 3;stroke-opacity:1;text-rendering:geometricPrecision"
     id="g129"
     stroke-miterlimit="0"
     transform="translate(2,2)"
     font-size="18">
    <line
       style="fill:none"
       id="line131"
       y1="35"
       x2="49"
       clip-path="url(#clipPath1)"
       x1="49"
       y2="625" />
  </g>
  <g
     style="font-size:18px;font-family:'Source Sans Pro Semibold';fill:#cccccc;fill-opacity:1;stroke:#cccccc;stroke-opacity:1;text-rendering:geometricPrecision"
     id="g133"
     transform="translate(854,2)"
     font-size="18">
    <rect
       style="stroke:none"
       id="rect135"
       clip-path="url(#clipPath2)"
       y="0"
       height="35"
       width="114"
       x="0" />
    <rect
       style="fill:none;stroke:#000000"
       id="rect137"
       height="35"
       width="114"
       clip-path="url(#clipPath2)"
       y="0"
       x="0" />
  </g>
  <g
     style="font-size:18px;font-family:'Source Sans Pro Semibold';fill:#000000;fill-opacity:1;stroke:#000000;stroke-linecap:butt;stroke-linejoin:bevel;stroke-miterlimit:0;stroke-dasharray:8, 3;stroke-opacity:1;text-rendering:geometricPrecision"
     id="g139"
     stroke-miterlimit="0"
     transform="translate(854,2)"
     font-size="18">
    <line
       style="fill:none"
       id="line141"
       y1="35"
       x2="57"
       clip-path="url(#clipPath2)"
       x1="57"
       y2="625" />
  </g>
  <g
     style="font-size:18px;font-family:'Source Sans Pro Semibold';fill:#cccccc;fill-opacity:1;stroke:#cccccc;stroke-opacity:1;text-rendering:geometricPrecision"
     id="g143"
     transform="translate(288,2)"
     font-size="18">
    <rect
       style="stroke:none"
       id="rect145"
       clip-path="url(#clipPath3)"
       y="0"
       height="35"
       width="88"
       x="0" />
    <rect
       style="fill:none;stroke:#000000"
       id="rect147"
       height="35"
       width="88"
       clip-path="url(#clipPath3)"
       y="0"
       x="0" />
  </g>
  <g
     style="font-size:18px;font-family:'Source Sans Pro Semibold';fill:#000000;fill-opacity:1;stroke:#000000;stroke-linecap:butt;stroke-linejoin:bevel;stroke-miterlimit:0;stroke-dasharray:8, 3;stroke-opacity:1;text-rendering:geometricPrecision"
     id="g149"
     stroke-miterlimit="0"
     transform="translate(288,2)"
     font-size="18">
    <line
       style="fill:none"
       id="line151"
       y1="35"
       x2="44"
       clip-path="url(#clipPath3)"
       x1="44"
       y2="625" />
  </g>
  <g
     style="font-size:18px;font-family:'Source Sans Pro Semibold';fill:#cccccc;fill-opacity:1;stroke:#cccccc;stroke-opacity:1;text-rendering:geometricPrecision"
     id="g153"
     transform="translate(571,238)"
     font-size="18">
    <rect
       style="stroke:none"
       id="rect155"
       clip-path="url(#clipPath4)"
       y="0"
       height="35"
       width="69"
       x="0" />
    <rect
       style="fill:none;stroke:#000000"
       id="rect157"
       height="35"
       width="69"
       clip-path="url(#clipPath4)"
       y="0"
       x="0" />
  </g>
  <g
     style="font-size:18px;font-family:'Source Sans Pro Semibold';fill:#000000;fill-opacity:1;stroke:#000000;stroke-linecap:butt;stroke-linejoin:bevel;stroke-miterlimit:0;stroke-dasharray:8, 3;stroke-opacity:1;text-rendering:geometricPrecision"
     id="g159"
     stroke-miterlimit="0"
     transform="translate(571,238)"
     font-size="18">
    <line
       style="fill:none"
       id="line161"
       y1="35"
       x2="34"
       clip-path="url(#clipPath4)"
       x1="34"
       y2="389" />
  </g>
  <g
     style="font-size:18px;font-family:'Source Sans Pro Semibold';fill:#cccccc;fill-opacity:1;stroke:#cccccc;stroke-opacity:1;text-rendering:geometricPrecision"
     id="g163"
     transform="matrix(1,0,0,1.0693258,47,67)"
     font-size="18">
    <rect
       style="stroke:none"
       id="rect165"
       clip-path="url(#clipPath5)"
       y="0"
       height="474"
       width="8"
       x="0" />
  </g>
  <g
     style="font-size:18px;font-family:'Source Sans Pro Semibold';fill:#cccccc;fill-opacity:1;stroke:#cccccc;stroke-opacity:1;text-rendering:geometricPrecision"
     id="g167"
     transform="translate(907,67)"
     font-size="18">
    <rect
       style="stroke:none"
       id="rect169"
       clip-path="url(#clipPath6)"
       y="0"
       height="514"
       width="8"
       x="0" />
  </g>
  <g
     style="font-size:18px;font-family:'Source Sans Pro Semibold';fill:#cccccc;fill-opacity:1;stroke:#cccccc;stroke-opacity:1;text-rendering:geometricPrecision"
     id="g171"
     transform="translate(328,127)"
     font-size="18">
    <rect
       style="stroke:none"
       id="rect173"
       clip-path="url(#clipPath7)"
       y="0"
       height="214"
       width="8"
       x="0" />
  </g>
  <g
     style="font-size:18px;font-family:'Source Sans Pro Semibold';fill:#cccccc;fill-opacity:1;stroke:#cccccc;stroke-opacity:1;text-rendering:geometricPrecision"
     id="g175"
     transform="translate(602,408)"
     font-size="18">
    <rect
       style="stroke:none"
       id="rect177"
       clip-path="url(#clipPath8)"
       y="0"
       height="195"
       width="8"
       x="0" />
  </g>
  <g
     style="font-size:18px;font-family:'Source Sans Pro Semibold';fill:#cccccc;fill-opacity:1;stroke:#cccccc;stroke-opacity:1;text-rendering:geometricPrecision"
     id="g179"
     transform="translate(47,569)"
     font-size="18">
    <rect
       style="stroke:none"
       id="rect181"
       clip-path="url(#clipPath9)"
       y="0"
       height="12"
       width="8"
       x="0" />
  </g>
  <g
     style="font-size:18px;font-family:'Source Sans Pro Semibold';fill:#000000;fill-opacity:1;stroke:#000000;stroke-opacity:1;text-rendering:geometricPrecision"
     id="g183"
     transform="translate(571,244)"
     font-size="18">
    <text
       style="stroke:none"
       id="text185"
       clip-path="url(#clipPath10)"
       y="18"
       xml:space="preserve"
       x="11">Query</text>
  </g>
  <g
     style="font-size:18px;font-family:'Source Sans Pro Semibold';fill:#000000;fill-opacity:1;stroke:#000000;stroke-opacity:1;text-rendering:geometricPrecision"
     id="g187"
     transform="translate(288,8)"
     font-size="18">
    <text
       style="stroke:none"
       id="text189"
       clip-path="url(#clipPath11)"
       y="18"
       xml:space="preserve"
       x="10">Executor</text>
  </g>
  <g
     style="font-size:18px;font-family:'Source Sans Pro Semibold';fill:#000000;fill-opacity:1;stroke:#000000;stroke-opacity:1;text-rendering:geometricPrecision"
     id="g191"
     transform="translate(854,8)"
     font-size="18">
    <text
       style="stroke:none"
       id="text193"
       clip-path="url(#clipPath12)"
       y="18"
       xml:space="preserve"
       x="9">Coordinator</text>
  </g>
  <g
     style="font-size:18px;font-family:'Source Sans Pro Semibold';fill:#000000;fill-opacity:1;stroke:#000000;stroke-opacity:1;text-rendering:geometricPrecision"
     id="g195"
     transform="translate(2,8)"
     font-size="18">
    <text
       style="stroke:none"
       id="text197"
       clip-path="url(#clipPath13)"
       y="18"
       xml:space="preserve"
       x="10">Submitter</text>
  </g>
  <g
     style="font-size:18px;font-family:'Source Sans Pro Light';fill:#000000;fill-opacity:1;stroke:#000000;stroke-linecap:butt;stroke-linejoin:round;stroke-opacity:1;text-rendering:geometricPrecision"
     id="g199"
     transform="translate(5,33)"
     font-size="18">
    <line
       style="fill:none"
       id="line201"
       y1="50"
       x2="902"
       clip-path="url(#clipPath15)"
       x1="50"
       y2="50" />
    <polygon
       style="stroke:none"
       id="polygon203"
       clip-path="url(#clipPath15)"
       points="890,56 902,50 890,44 " />
    <polygon
       style="fill:none"
       id="polygon205"
       clip-path="url(#clipPath15)"
       points="890,56 902,50 890,44 " />
  </g>
  <g
     style="font-size:18px;font-family:'Source Sans Pro Light';fill:#000000;fill-opacity:1;stroke:#000000;stroke-linecap:butt;stroke-linejoin:round;stroke-opacity:1;text-rendering:geometricPrecision"
     id="g207"
     transform="translate(286,85)"
     font-size="18">
    <line
       style="fill:none"
       id="line209"
       y1="50"
       x2="50"
       clip-path="url(#clipPath17)"
       x1="621"
       y2="50" />
    <polygon
       style="stroke:none"
       id="polygon211"
       clip-path="url(#clipPath17)"
       points="62,44 50,50 62,56 " />
    <polygon
       style="fill:none"
       id="polygon213"
       clip-path="url(#clipPath17)"
       points="62,44 50,50 62,56 " />
  </g>
  <g
     style="font-size:18px;font-family:'Source Sans Pro Light';fill:#000000;fill-opacity:1;stroke:#000000;stroke-linecap:butt;stroke-linejoin:round;stroke-dasharray:5;stroke-dashoffset:1;stroke-opacity:1;text-rendering:geometricPrecision"
     id="g215"
     transform="translate(286,208)"
     font-size="18">
    <line
       style="fill:none"
       id="line217"
       y1="50"
       x2="285"
       clip-path="url(#clipPath19)"
       x1="50"
       y2="50" />
    <line
       style="fill:none;stroke-dasharray:none;stroke-dashoffset:0"
       id="line219"
       y2="44"
       y1="50"
       x2="273"
       x1="285"
       clip-path="url(#clipPath19)" />
    <line
       style="fill:none;stroke-dasharray:none;stroke-dashoffset:0"
       id="line221"
       y2="56"
       y1="50"
       x2="273"
       x1="285"
       clip-path="url(#clipPath19)" />
  </g>
  <g
     style="font-size:18px;font-family:'Source Sans Pro Light';fill:#000000;fill-opacity:1;stroke:#000000;stroke-linecap:butt;stroke-linejoin:round;stroke-miterlimit:0;stroke-dasharray:8, 3;stroke-opacity:1;text-rendering:geometricPrecision"
     id="g223"
     stroke-miterlimit="0"
     transform="translate(286,279)"
     font-size="18">
    <line
       style="fill:none"
       id="line225"
       y1="50"
       x2="621"
       clip-path="url(#clipPath20)"
       x1="50"
       y2="50" />
    <line
       style="fill:none;stroke-miterlimit:10;stroke-dasharray:none"
       id="line227"
       stroke-miterlimit="10"
       y2="44"
       y1="50"
       x2="609"
       x1="621"
       clip-path="url(#clipPath20)" />
    <line
       style="fill:none;stroke-miterlimit:10;stroke-dasharray:none"
       id="line229"
       stroke-miterlimit="10"
       y2="56"
       y1="50"
       x2="609"
       x1="621"
       clip-path="url(#clipPath20)" />
  </g>
  <g
     style="font-size:18px;font-family:'Source Sans Pro Light';fill:#000000;fill-opacity:1;stroke:#000000;stroke-linecap:butt;stroke-linejoin:round;stroke-miterlimit:0;stroke-dasharray:8, 3;stroke-opacity:1;text-rendering:geometricPrecision"
     id="g231"
     stroke-miterlimit="0"
     transform="translate(560,468)"
     font-size="18">
    <line
       style="fill:none"
       id="line233"
       y1="50"
       x2="50"
       clip-path="url(#clipPath22)"
       x1="347"
       y2="50" />
    <line
       style="fill:none;stroke-miterlimit:10;stroke-dasharray:none"
       id="line235"
       stroke-miterlimit="10"
       y2="56"
       y1="50"
       x2="62"
       x1="50"
       clip-path="url(#clipPath22)" />
    <line
       style="fill:none;stroke-miterlimit:10;stroke-dasharray:none"
       id="line237"
       stroke-miterlimit="10"
       y2="44"
       y1="50"
       x2="62"
       x1="50"
       clip-path="url(#clipPath22)" />
  </g>
  <g
     style="font-size:18px;font-family:'Source Sans Pro Light';fill:#000000;fill-opacity:1;stroke:#000000;stroke-linecap:butt;stroke-linejoin:round;stroke-miterlimit:0;stroke-dasharray:8, 3;stroke-opacity:1;text-rendering:geometricPrecision"
     id="g239"
     stroke-miterlimit="0"
     transform="translate(5,519)"
     font-size="18">
    <line
       style="fill:none"
       id="line241"
       y1="50"
       x2="50"
       clip-path="url(#clipPath23)"
       x1="902"
       y2="50" />
    <line
       style="fill:none;stroke-miterlimit:10;stroke-dasharray:none"
       id="line243"
       stroke-miterlimit="10"
       y2="56"
       y1="50"
       x2="62"
       x1="50"
       clip-path="url(#clipPath23)" />
    <line
       style="fill:none;stroke-miterlimit:10;stroke-dasharray:none"
       id="line245"
       stroke-miterlimit="10"
       y2="44"
       y1="50"
       x2="62"
       x1="50"
       clip-path="url(#clipPath23)" />
  </g>
  <g
     style="font-size:18px;font-family:'Source Sans Pro Light';fill:#000000;fill-opacity:1;stroke:#000000;stroke-linecap:butt;stroke-linejoin:round;stroke-opacity:1;text-rendering:geometricPrecision"
     id="g247"
     transform="translate(286,137)"
     font-size="18">
    <line
       style="fill:none"
       id="line249"
       y1="50"
       x2="77"
       clip-path="url(#clipPath25)"
       x1="50"
       y2="50" />
    <line
       style="fill:none"
       id="line251"
       y1="50"
       x2="77"
       clip-path="url(#clipPath25)"
       x1="77"
       y2="72" />
    <line
       style="fill:none"
       id="line253"
       y1="72"
       x2="50"
       clip-path="url(#clipPath25)"
       x1="77"
       y2="72" />
    <polygon
       style="stroke:none"
       id="polygon255"
       clip-path="url(#clipPath25)"
       points="62,66 50,72 62,78 " />
    <polygon
       style="fill:none"
       id="polygon257"
       clip-path="url(#clipPath25)"
       points="62,66 50,72 62,78 " />
  </g>
  <g
     style="font-size:18px;font-family:'Source Sans Pro Light';fill:#000000;fill-opacity:1;stroke:#000000;stroke-linecap:butt;stroke-linejoin:round;stroke-opacity:1;text-rendering:geometricPrecision"
     id="g259"
     transform="translate(560,358)"
     font-size="18">
    <line
       style="fill:none"
       id="line261"
       y1="50"
       x2="76"
       clip-path="url(#clipPath27)"
       x1="50"
       y2="50" />
    <line
       style="fill:none"
       id="line263"
       y1="50"
       x2="76"
       clip-path="url(#clipPath27)"
       x1="76"
       y2="70" />
    <line
       style="fill:none"
       id="line265"
       y1="70"
       x2="50"
       clip-path="url(#clipPath27)"
       x1="76"
       y2="70" />
    <polygon
       style="stroke:none"
       id="polygon267"
       clip-path="url(#clipPath27)"
       points="62,64 50,70 62,76 " />
    <polygon
       style="fill:none"
       id="polygon269"
       clip-path="url(#clipPath27)"
       points="62,64 50,70 62,76 " />
  </g>
  <g
     style="font-size:18px;font-family:'Source Sans Pro Light';fill:#000000;fill-opacity:1;stroke:#000000;stroke-linecap:butt;stroke-linejoin:round;stroke-opacity:1;text-rendering:geometricPrecision"
     id="g271"
     transform="translate(560,418)"
     font-size="18">
    <line
       style="fill:none"
       id="line273"
       y1="50"
       x2="347"
       clip-path="url(#clipPath28)"
       x1="50"
       y2="50" />
    <polygon
       style="fill:#cccccc;stroke:none"
       id="polygon275"
       points="335,56 347,50 335,44 "
       clip-path="url(#clipPath28)" />
    <polygon
       style="fill:none"
       id="polygon277"
       clip-path="url(#clipPath28)"
       points="335,56 347,50 335,44 " />
  </g>
  <g
     style="font-size:18px;font-family:'Source Sans Pro Light';fill:#ffffff;fill-opacity:1;stroke:#ffffff;stroke-opacity:1;text-rendering:geometricPrecision"
     id="g279"
     transform="translate(669,442)"
     font-size="18">
    <rect
       style="stroke:none"
       id="rect281"
       clip-path="url(#clipPath29)"
       y="0"
       height="23"
       width="169"
       x="0" />
    <text
       style="fill:#000000;stroke:none"
       id="text283"
       clip-path="url(#clipPath29)"
       y="18"
       xml:space="preserve"
       x="10">Announce (Query Id)</text>
  </g>
  <g
     style="font-size:18px;font-family:'Source Sans Pro Light';fill:#ffffff;fill-opacity:1;stroke:#ffffff;stroke-opacity:1;text-rendering:geometricPrecision"
     id="g285"
     transform="translate(646,406)"
     font-size="18">
    <rect
       style="stroke:none"
       id="rect287"
       clip-path="url(#clipPath30)"
       y="0"
       height="23"
       width="195"
       x="0" />
    <text
       style="fill:#000000;stroke:none"
       id="text289"
       clip-path="url(#clipPath30)"
       y="18"
       xml:space="preserve"
       x="9">Initialize worker threads</text>
  </g>
  <g
     style="font-size:18px;font-family:'Source Sans Pro Light';fill:#ffffff;fill-opacity:1;stroke:#ffffff;stroke-opacity:1;text-rendering:geometricPrecision"
     id="g291"
     transform="translate(372,186)"
     font-size="18">
    <rect
       style="stroke:none"
       id="rect293"
       clip-path="url(#clipPath31)"
       y="0"
       height="23"
       width="107"
       x="0" />
    <text
       style="fill:#000000;stroke:none"
       id="text295"
       clip-path="url(#clipPath31)"
       y="18"
       xml:space="preserve"
       x="9">Load binary</text>
  </g>
  <g
     style="font-size:18px;font-family:'Source Sans Pro Light';fill:#ffffff;fill-opacity:1;stroke:#ffffff;stroke-opacity:1;text-rendering:geometricPrecision"
     id="g297"
     transform="translate(400,544)"
     font-size="18">
    <rect
       style="stroke:none"
       id="rect299"
       clip-path="url(#clipPath32)"
       y="0"
       height="23"
       width="154"
       x="0" />
    <text
       style="fill:#000000;stroke:none"
       id="text301"
       clip-path="url(#clipPath32)"
       y="18"
       xml:space="preserve"
       x="9">Success (Query Id)</text>
  </g>
  <g
     style="font-size:18px;font-family:'Source Sans Pro Light';fill:#ffffff;fill-opacity:1;stroke:#ffffff;stroke-opacity:1;text-rendering:geometricPrecision"
     id="g303"
     transform="translate(733,494)"
     font-size="18">
    <rect
       style="stroke:none"
       id="rect305"
       clip-path="url(#clipPath33)"
       y="0"
       height="23"
       width="46"
       x="0" />
    <text
       style="fill:#000000;stroke:none"
       id="text307"
       clip-path="url(#clipPath33)"
       y="18"
       xml:space="preserve"
       x="10">Ack</text>
  </g>
  <g
     style="font-size:18px;font-family:'Source Sans Pro Light';fill:#ffffff;fill-opacity:1;stroke:#ffffff;stroke-opacity:1;text-rendering:geometricPrecision"
     id="g309"
     transform="translate(579,305)"
     font-size="18">
    <rect
       style="stroke:none"
       id="rect311"
       clip-path="url(#clipPath34)"
       y="0"
       height="23"
       width="79"
       x="0" />
    <text
       style="fill:#000000;stroke:none"
       id="text313"
       clip-path="url(#clipPath34)"
       y="18"
       xml:space="preserve"
       x="9">Success</text>
  </g>
  <g
     style="font-size:18px;font-family:'Source Sans Pro Light';fill:#ffffff;fill-opacity:1;stroke:#ffffff;stroke-opacity:1;text-rendering:geometricPrecision"
     id="g315"
     transform="translate(385,234)"
     font-size="18">
    <rect
       style="stroke:none"
       id="rect317"
       clip-path="url(#clipPath35)"
       y="0"
       height="23"
       width="130"
       x="0" />
    <text
       style="fill:#000000;stroke:none"
       id="text319"
       clip-path="url(#clipPath35)"
       y="18"
       xml:space="preserve"
       x="10">Spawn process</text>
  </g>
  <g
     style="font-size:18px;font-family:'Source Sans Pro Light';fill:#ffffff;fill-opacity:1;stroke:#ffffff;stroke-opacity:1;text-rendering:geometricPrecision"
     id="g321"
     transform="translate(447,110)"
     font-size="18">
    <rect
       style="stroke:none"
       id="rect323"
       clip-path="url(#clipPath36)"
       y="0"
       height="23"
       width="337"
       x="0" />
    <text
       style="fill:#000000;stroke:none"
       id="text325"
       clip-path="url(#clipPath36)"
       y="18"
       xml:space="preserve"
       x="10">Spawn (Query URL, Query Id, Configuration)</text>
  </g>
  <g
     style="font-size:18px;font-family:'Source Sans Pro Light';fill:#ffffff;fill-opacity:1;stroke:#ffffff;stroke-opacity:1;text-rendering:geometricPrecision"
     id="g327"
     transform="translate(320,56)"
     font-size="18">
    <rect
       style="stroke:none"
       id="rect329"
       clip-path="url(#clipPath37)"
       y="0"
       height="23"
       width="304"
       x="0" />
    <text
       style="fill:#000000;stroke:none"
       id="text331"
       clip-path="url(#clipPath37)"
       y="18"
       xml:space="preserve"
       x="9">Submission (Query URL, Configuration)</text>
  </g>
</svg>
